# xmcd
#
# Track frame offsets:
#	150
#	17617
#	27990
#	45737
#	61140
#	75307
#	86875
#	103167
#	115732
#	129650
#	142530
#	154175
#
# Disc length: 2256 seconds
# Revision: 3
# Processed by: cddbd v1.5.2PL0 Copyright (c) Steve Scherf et al.
# Submitted via: dBpowerAMP V12.0
#
DISCID=8e08ce0c
DTITLE=Clinton Gregory - Freeborn Man
DYEAR=1992
DGENRE=Country
TTITLE0=Play Ruby Play
TTITLE1=She Takes The Sad Out Of Saturday Night
TTITLE2=Freeborn Man
TTITLE3=Who Needs It
TTITLE4=If A Broken Heart Could Kill
TTITLE5=Till This Ring Turns Green
TTITLE6=The Game Is The Same
TTITLE7=Look Who's Needing Who
TTITLE8=She Can't Believe My Eyes
TTITLE9=Here's To You, Tears To Me
TTITLE10=The Jukebox Has A 45
TTITLE11=I Wish It Was That Easy Going Home
EXTD=
EXTT0=
EXTT1=
EXTT2=
EXTT3=
EXTT4=
EXTT5=
EXTT6=
EXTT7=
EXTT8=
EXTT9=
EXTT10=
EXTT11=
PLAYORDER=
